#!OML:ASF F:\VICON\USERDATA\INSTALL\rory3\rory3.ASF
:FULLY-SPECIFIED
:DEGREES
180
root 4.52587 17.4847 2.92951 17.3302 -7.04779 -7.23443
lowerback -4.26833 -1.16664 7.40654
upperback -8.12173 -1.47014 3.3851
thorax -6.22413 -1.07646 -0.565082
lowerneck -11.7283 5.21826 0.836194
upperneck 36.0587 6.22994 3.38674
head 14.1894 3.22369 2.16407
rclavicle 9.30561e-015 6.75868e-015
rhumerus -1.52618 -17.3501 6.63473
rradius 111.359
rwrist -51.5932
rhand -2.47973 -44.2431
rfingers 7.12502
rthumb 23.2132 -72.8642
lclavicle 9.30561e-015 6.75868e-015
lhumerus 27.372 28.7325 -9.0324
lradius 32.0092
lwrist 35.2855
lhand -24.9541 -19.1634
lfingers 7.12502
lthumb 1.55594 10.8107
rfemur -15.4821 9.55062 2.84314
rtibia 27.5249
rfoot 20.4592 -6.7207
rtoes -33.4198
lfemur -29.1054 -1.20918 -20.1644
ltibia 29.9452
lfoot -15.9967 8.89113
ltoes 12.4309
181
root 4.53175 17.4765 2.92064 17.2831 -7.02187 -7.27022
lowerback -4.13788 -1.1575 7.39916
upperback -8.10812 -1.44695 3.33671
thorax -6.28324 -1.0671 -0.60878
lowerneck -11.5883 5.09673 0.698914
upperneck 36.1128 6.05743 3.46374
head 14.1761 3.14014 2.1891
rclavicle 1.54928e-014 -2.06736e-014
rhumerus -1.53666 -17.1412 6.47079
rradius 111.189
rwrist -51.4221
rhand -2.6678 -44.3198
rfingers 7.12502
rthumb 23.0328 -72.9635
lclavicle 1.54928e-014 -2.06736e-014
lhumerus 27.6086 28.723 -8.68755
lradius 31.8888
lwrist 35.129
lhand -24.0725 -19.3299
lfingers 7.12502
lthumb 2.40737 10.6363
rfemur -15.723 9.61336 2.84007
rtibia 27.9427
rfoot 20.532 -6.55873
rtoes -33.1122
lfemur -29.1732 -1.22833 -20.1447
ltibia 30.1041
lfoot -15.9637 8.97225
ltoes 12.5136
182
root 4.5356 17.4696 2.91392 17.2336 -6.96068 -7.28168
lowerback -4.15624 -1.15681 7.35615
upperback -8.00775 -1.45672 3.26773
thorax -6.1641 -1.06653 -0.661361
lowerneck -11.6354 4.95898 0.55098
upperneck 36.1212 5.83396 3.61781
head 14.1818 3.04332 2.24531
rclavicle 5.15598e-015 -8.15017e-015
rhumerus -1.67566 -17.0328 6.33058
rradius 111.156
rwrist -51.5522
rhand -3.46704 -44.7928
rfingers 7.12502
rthumb 22.2657 -73.5301
lclavicle 5.15598e-015 -8.15017e-015
lhumerus 27.9815 28.9737 -8.2045
lradius 31.6707
lwrist 34.4904
lhand -24.3958 -19.3668
lfingers 7.12502
lthumb 2.09513 10.6027
rfemur -15.8905 9.67752 2.84641
rtibia 28.363
rfoot 20.5584 -6.34839
rtoes -32.8523
lfemur -29.2416 -1.22665 -20.1407
ltibia 30.2572
lfoot -16.0198 8.94321
ltoes 12.5267
183
root 4.53922 17.4658 2.908 17.1078 -6.91976 -7.23059
lowerback -4.18538 -1.1873 7.20766
upperback -7.83104 -1.51257 3.21981
thorax -5.95407 -1.07823 -0.635987
lowerneck -11.9369 4.88989 0.692867
upperneck 36.2411 5.73826 3.48052
head 14.3206 2.99838 2.16869
rclavicle -2.98301e-014 1.96797e-014
rhumerus -1.75165 -17.0105 6.17839
rradius 111.129
rwrist -51.7478
rhand -3.37285 -45.0942
rfingers 7.12502
rthumb 22.3561 -73.8207
lclavicle -2.98301e-014 1.96797e-014
lhumerus 28.3991 29.5379 -7.54366
lradius 31.4566
lwrist 33.6926
lhand -24.5188 -19.0572
lfingers 7.12502
lthumb 1.97627 10.9134
rfemur -16.0062 9.68151 2.81657
rtibia 28.8099
rfoot 20.5929 -6.10508
rtoes -32.5648
lfemur -29.2048 -1.16024 -20.221
ltibia 30.369
lfoot -16.0772 8.90221
ltoes 12.5882
184
root 4.53915 17.4638 2.90089 16.9014 -6.80539 -7.24451
lowerback -4.01799 -1.26057 7.05606
upperback -7.68889 -1.60067 3.23861
thorax -5.89406 -1.10808 -0.531351
lowerneck -11.9484 4.82738 0.981483
upperneck 36.2209 5.73098 3.01885
head 14.3476 2.97019 1.93104
rclavicle -4.00613e-014 2.44505e-014
rhumerus -1.85509 -16.8329 6.09875
rradius 111.151
rwrist -51.6267
rhand -3.42829 -45.1316
rfingers 7.12502
rthumb 22.3029 -73.8645
lclavicle -4.00613e-014 2.44505e-014
lhumerus 28.22 29.3258 -7.61255
lradius 31.5313
lwrist 33.7215
lhand -23.5814 -19.127
lfingers 7.12502
lthumb 2.88167 10.8333
rfemur -16.0629 9.67759 2.92995
rtibia 29.3054
rfoot 20.3145 -6.88756
rtoes -30.6999
lfemur -29.0522 -1.17911 -20.1836
ltibia 30.4417
lfoot -16.1001 8.93187
ltoes 12.4116
185
root 4.53245 17.4589 2.88544 16.6049 -6.62507 -7.16235
lowerback -3.61533 -1.38029 6.72835
upperback -7.63006 -1.7221 3.29029
thorax -6.05075 -1.14991 -0.283781
lowerneck -11.6126 4.68229 0.983309
upperneck 36.11 5.63504 2.68331
head 14.2359 2.88523 1.76361
rclavicle -8.59122e-015 -2.72335e-014
rhumerus -1.85247 -16.4019 5.95364
rradius 111.139
rwrist -51.1823
rhand -4.11899 -45.0919
rfingers 7.12502
rthumb 21.6397 -73.9026
lclavicle -8.59122e-015 -2.72335e-014
lhumerus 27.5746 28.4083 -8.22659
lradius 31.8039
lwrist 34.4409
lhand -23.6608 -19.5354
lfingers 7.12502
lthumb 2.80495 10.4259
rfemur -16.033 9.6881 3.02211
rtibia 29.7947
rfoot 20.2094 -7.24454
rtoes -29.8017
lfemur -28.8506 -1.27068 -20.1945
ltibia 30.5073
lfoot -16.1042 8.90036
ltoes 12.2129
